<svg width="15" height="15" viewBox="0 0 15 15" fill="none" xmlns="http://www.w3.org/2000/svg">
<path d="M10.625 1.875V0.625C10.625 0.28 10.9044 0 11.25 0C11.5956 0 11.875 0.28 11.875 0.625V1.875C11.875 2.22 11.5956 2.5 11.25 2.5C10.9044 2.5 10.625 2.22 10.625 1.875ZM3.125 2.5C3.47062 2.5 3.75 2.22 3.75 1.875V0.625C3.75 0.28 3.47062 0 3.125 0C2.77938 0 2.5 0.28 2.5 0.625V1.875C2.5 2.22 2.77938 2.5 3.125 2.5ZM11.25 10.625V8.75H10.625V11.25H12.5V10.625H11.25ZM8.125 10.9375C8.125 12.4881 9.38688 13.75 10.9375 13.75C12.4881 13.75 13.75 12.4881 13.75 10.9375C13.75 9.38688 12.4881 8.125 10.9375 8.125C9.38688 8.125 8.125 9.38688 8.125 10.9375ZM15 10.9375C15 13.1812 13.1812 15 10.9375 15C8.69375 15 6.875 13.1812 6.875 10.9375C6.875 8.69375 8.69375 6.875 10.9375 6.875C13.1812 6.875 15 8.69375 15 10.9375ZM6.10187 13.125H1.25V5H13.125V6.10187C13.5794 6.30812 13.9994 6.575 14.375 6.89437V1.25H12.5V1.875C12.5 2.6975 11.7012 3.33687 10.8387 3.05875C10.3194 2.89125 10 2.36438 10 1.81875V1.25H4.375V1.875C4.375 2.6975 3.57625 3.33687 2.71375 3.05875C2.19438 2.89125 1.875 2.36438 1.875 1.81875V1.25H0V14.375H6.89437C6.575 13.9994 6.30812 13.5794 6.10187 13.125Z" fill="#4C4C4C"/>
</svg>
