<svg width="87" height="100" viewBox="0 0 87 100" fill="none" xmlns="http://www.w3.org/2000/svg">
<path d="M63.9843 31.5965H35.1497C36.9656 28.3151 39.2755 25.7535 42.0709 23.8839L42.0788 23.8786L42.0866 23.8731C45.2606 21.6618 48.9738 20.5439 53.2661 20.5439C57.0614 20.5439 60.457 21.4385 63.4777 23.2131L63.4872 23.2187L63.4969 23.2241C66.5415 24.9234 69.0504 27.2464 71.0303 30.2053L71.6521 31.1344L72.5064 30.4133L84.645 20.1677L85.2704 19.6398L84.8767 18.9224C81.8575 13.4212 77.5046 9.07953 71.8423 5.90437C66.251 2.62687 59.8772 1 52.7496 1C43.154 1 34.8751 3.82858 27.9665 9.50824C21.252 15.0283 16.528 22.4066 13.7764 31.5965H2.12913H1.12913V32.5965V46.0702V47.0702H2.12913H11.2569C11.2195 47.8341 11.2016 48.766 11.2016 49.8597C11.2016 51.3139 11.2229 52.5266 11.2668 53.4912H2H1V54.4912V67.9649V68.9649H2H14.0455C16.8781 77.9706 21.5995 85.2081 28.2264 90.6334L28.2313 90.6374C35.1366 96.2181 43.3257 99 52.7496 99C59.8755 99 66.2482 97.4207 71.8396 94.2375L71.8449 94.2344C77.5054 90.9661 81.8575 86.5788 84.8767 81.0776L85.2704 80.3602L84.645 79.8323L72.5064 69.5867L71.6521 68.8656L71.0303 69.7948C69.0495 72.7549 66.5377 75.1277 63.4873 76.9216C60.466 78.6057 57.0667 79.4561 53.2661 79.4561C49.1428 79.4561 45.5065 78.4296 42.326 76.3946C39.6228 74.536 37.37 72.0664 35.5729 68.9649H54.9449H55.7263L55.9152 68.2067L59.2727 54.733L59.5821 53.4912H58.3024H31.1969C31.0794 52.0579 31.022 50.8964 31.022 50C31.022 48.7913 31.0422 47.8175 31.0806 47.0702H60.6268H61.4082L61.5971 46.312L64.9546 32.8383L65.264 31.5965H63.9843Z" fill="#F2F2F2" stroke="white" stroke-width="2"/>
</svg>
