<svg width="28" height="28" viewBox="0 0 28 28" fill="none" xmlns="http://www.w3.org/2000/svg">
<path d="M14 0C10.7777 0 8.16667 2.611 8.16667 5.83333C8.16667 9.05567 10.7777 11.6667 14 11.6667C17.2223 11.6667 19.8333 9.05567 19.8333 5.83333C19.8333 2.611 17.2223 0 14 0ZM14.2917 8.71967V9.33333H13.7083V8.75117C13.104 8.74067 12.4798 8.59717 11.9583 8.32767L12.2243 7.36867C12.782 7.58567 13.524 7.8155 14.105 7.68483C14.7747 7.532 14.9123 6.8425 14.1715 6.51117C13.629 6.258 11.9677 6.04217 11.9677 4.62C11.9677 3.82433 12.5743 3.11267 13.7083 2.95633V2.33333H14.2917V2.92717C14.7128 2.93883 15.1877 3.01233 15.7162 3.17217L15.505 4.1335C15.057 3.976 14.5623 3.8325 14.0793 3.86283C13.2113 3.913 13.1343 4.6655 13.741 4.9805C14.7385 5.4495 16.0417 5.79717 16.0417 7.04783C16.044 8.05 15.2577 8.58317 14.2917 8.71967ZM14 16.3333C10.7777 16.3333 8.16667 18.9443 8.16667 22.1667C8.16667 25.389 10.7777 28 14 28C17.2223 28 19.8333 25.389 19.8333 22.1667C19.8333 18.9443 17.2223 16.3333 14 16.3333ZM14 26.8333C11.4275 26.8333 9.33333 24.7392 9.33333 22.1667C9.33333 19.5942 11.4275 17.5 14 17.5C16.5737 17.5 18.6667 19.5942 18.6667 22.1667C18.6667 24.7392 16.5737 26.8333 14 26.8333ZM25.1732 10.9515C26.6117 13.6955 26.9792 18.886 22.1573 22.3335C22.1795 21.3045 22.0255 20.3432 21.6487 19.3328C24.1138 17.2982 24.0415 14.3582 23.0405 12.0598L20.2673 13.5018L22.1293 7.45617L28 9.48267L25.1732 10.9515ZM2.82683 17.4977C1.38833 14.7537 1.1235 9.16067 5.94417 5.71317C5.922 6.74217 6.07717 7.70467 6.45283 8.71383C3.9865 10.7497 3.95733 14.091 4.95833 16.3905L7.7315 14.9485L5.8695 20.9942L0 18.9665L2.82683 17.4977ZM13.9988 25.6667V24.7847H13.7095V25.6667H13.1238V24.7847H11.6748L11.823 23.9167H12.138C12.3935 23.9167 12.5428 23.6682 12.5428 23.4185V20.8262C12.5428 20.5835 12.4005 20.4167 12.145 20.4167H11.6667V19.5417H13.1238V18.6667H13.7095V19.5417H13.9988V18.6667H14.5845V19.5568C15.8422 19.6 16.3415 20.076 16.485 20.615C16.6518 21.2508 16.233 21.784 15.8725 21.9147C16.31 22.0267 16.9178 22.3498 16.9178 23.0965C16.9178 24.1127 16.1327 24.7928 14.5857 24.7928V25.6667H13.9988ZM13.7095 22.4572V23.9167C14.8657 23.9167 15.659 23.807 15.659 23.1828C15.659 22.512 14.8027 22.4572 13.7095 22.4572ZM13.7095 21.875C14.3535 21.875 15.337 21.8283 15.337 21.1447C15.337 20.5625 14.7292 20.4155 13.7095 20.4155V21.875Z" fill="#4C4C4C"/>
</svg>
