<svg width="26" height="26" viewBox="0 0 26 26" fill="none" xmlns="http://www.w3.org/2000/svg">
<path fill-rule="evenodd" clip-rule="evenodd" d="M13 0C5.82075 0 0 5.82075 0 13C0 20.1793 5.82075 26 13 26C20.1793 26 26 20.1793 26 13C26 5.82075 20.1793 0 13 0ZM13 2.16667C18.9735 2.16667 23.8333 7.0265 23.8333 13C23.8333 18.9735 18.9735 23.8333 13 23.8333C7.0265 23.8333 2.16667 18.9735 2.16667 13C2.16667 7.0265 7.0265 2.16667 13 2.16667ZM15.9163 18.2964C16.0908 18.421 16.315 18.4513 16.5154 18.3755C16.7158 18.2997 16.8643 18.1285 16.9076 17.9205C17.3788 15.7083 18.5207 10.1086 18.9486 8.09683C18.9811 7.94517 18.928 7.78808 18.8088 7.68625C18.6897 7.5855 18.5239 7.55625 18.3766 7.61042C16.1059 8.45108 9.11083 11.0749 6.25192 12.1333C6.06992 12.2005 5.95183 12.3749 5.95833 12.5667C5.96483 12.7584 6.09375 12.9242 6.279 12.9794C7.56167 13.3629 9.24517 13.897 9.24517 13.897C9.24517 13.897 10.0306 16.2728 10.4412 17.4807C10.4921 17.6313 10.6113 17.7515 10.7673 17.7916C10.9243 17.8328 11.0901 17.7905 11.2071 17.68C11.8658 17.0582 12.8841 16.0972 12.8841 16.0972C12.8841 16.0972 14.8189 17.5153 15.9163 18.2964ZM9.95258 13.5969L10.8626 16.5967L11.0641 14.6965C11.0641 14.6965 14.5773 11.5278 16.5804 9.72075C16.64 9.66875 16.6476 9.57992 16.5988 9.51708C16.5501 9.45533 16.4623 9.44017 16.3952 9.48242C14.0736 10.9644 9.95258 13.5969 9.95258 13.5969Z" fill="#4C4C4C"/>
</svg>
