<svg width="86" height="103" viewBox="0 0 86 103" fill="none" xmlns="http://www.w3.org/2000/svg">
<path d="M73.0919 69.35V68.35H72.0919H35.1066V60.9H51.8934C58.1488 60.9 63.7748 59.7261 68.7504 57.3543C73.8373 54.9774 77.8062 51.5021 80.6264 46.9317C83.5529 42.3522 85 37.0124 85 30.95C85 21.799 81.8872 14.4588 75.6121 9.0454C69.4666 3.65692 61.53 1 51.8934 1H13.7574H12.7574V2V41.8H2H1V42.8V59.9V60.9H2H12.7574V68.35H2H1V69.35V85.55V86.55H2H12.7574V101V102H13.7574H34.1066H35.1066V101V86.55H72.0919H73.0919V85.55V69.35ZM59.3592 23.1388L59.3677 23.1466L59.3764 23.1542C61.5348 25.0336 62.6507 27.6389 62.6507 31.1C62.6507 34.5563 61.5379 37.1592 59.3854 39.038C57.1955 40.8498 54.2776 41.8 50.5368 41.8H35.1066V20.1H50.5368C54.2593 20.1 57.1672 21.1393 59.3592 23.1388Z" fill="#F2F2F2" stroke="white" stroke-width="2"/>
</svg>
