<svg width="64" height="115" viewBox="0 0 64 115" fill="none" xmlns="http://www.w3.org/2000/svg">
<path d="M64 74.6277C64 80.9712 61.8713 86.2727 57.6139 90.5319C53.449 94.7005 47.8959 97.3286 40.9544 98.4161V115H24.5727V98.1442C19.2046 96.9661 14.3919 94.8365 10.1345 91.7553C5.96963 88.5835 2.59147 84.5961 0 79.7931L12.6334 70.5496C18.0014 78.7963 24.9892 82.9196 33.5965 82.9196C37.2061 82.9196 40.1215 82.24 42.3427 80.8806C44.564 79.5213 45.6746 77.5276 45.6746 74.8995C45.6746 72.7246 44.7954 71.0028 43.0369 69.734C41.3709 68.3747 38.6869 66.9701 34.9848 65.5201L25.5445 62.1217C19.0658 59.7656 13.9754 56.6391 10.2733 52.7423C6.66377 48.7549 4.859 43.9972 4.859 38.4693C4.859 32.9413 6.66377 28.2289 10.2733 24.3321C13.8829 20.3448 18.6493 17.6714 24.5727 16.3121V0H40.9544V16.0402C50.1171 17.9433 57.0123 23.1541 61.6399 31.6726L49.1453 40.9161C46.9241 37.7443 44.5177 35.4334 41.9262 33.9835C39.3348 32.4429 36.4194 31.6726 33.18 31.6726C30.3109 31.6726 27.9046 32.2616 25.961 33.4397C24.1099 34.5272 23.1844 36.249 23.1844 38.6052C23.1844 40.5989 23.9248 42.2301 25.4056 43.4988C26.979 44.6769 29.3391 45.9003 32.4859 47.169L42.898 50.7033C49.932 53.2407 55.2075 56.5032 58.7245 60.4905C62.2415 64.3873 64 69.0997 64 74.6277Z" fill="#F2F2F2"/>
</svg>
